<svg xmlns="http://www.w3.org/2000/svg" version="1.1" xmlns:xlink="http://www.w3.org/1999/xlink" xmlns:svgjs="http://svgjs.com/svgjs" x="0" y="0" viewBox="0 0 197.973 197.973" style="enable-background:new 0 0 512 512" xml:space="preserve" class=""><g><path xmlns="http://www.w3.org/2000/svg" style="" d="M34.135,175.836V3.413h129.707v172.423c0,10.341-8.849,18.724-19.765,18.724H53.898  C42.984,194.56,34.135,186.177,34.135,175.836z" fill="#fca417" data-original="#feda38"/><path xmlns="http://www.w3.org/2000/svg" d="M144.077,197.973H53.898c-12.78,0-23.178-9.929-23.178-22.137V3.413C30.72,1.529,32.249,0,34.133,0H163.84  c1.884,0,3.413,1.529,3.413,3.413v172.423C167.255,188.044,156.858,197.973,144.077,197.973z M37.548,6.827v169.009  c0,8.441,7.335,15.311,16.352,15.311h90.179c9.016,0,16.352-6.868,16.352-15.311V6.827H37.548z" fill="#000000" data-original="#000000"/><rect xmlns="http://www.w3.org/2000/svg" x="61.442" y="119.467" width="6.827" height="27.307" fill="#000000" data-original="#000000"/><rect xmlns="http://www.w3.org/2000/svg" x="51.202" y="129.707" width="27.307" height="6.827" fill="#000000" data-original="#000000"/><circle xmlns="http://www.w3.org/2000/svg" style="" cx="124.588" cy="114.347" r="8.533" fill="#ff135a" data-original="#ee5281" class=""/><path xmlns="http://www.w3.org/2000/svg" d="M124.588,126.293c-6.588,0-11.947-5.361-11.947-11.947c0-6.586,5.359-11.947,11.947-11.947  c6.588,0,11.947,5.361,11.947,11.947C136.535,120.933,131.176,126.293,124.588,126.293z M124.588,109.227  c-2.823,0-5.12,2.297-5.12,5.12s2.297,5.12,5.12,5.12s5.12-2.297,5.12-5.12S127.411,109.227,124.588,109.227z" fill="#000000" data-original="#000000"/><circle xmlns="http://www.w3.org/2000/svg" style="" cx="107.522" cy="134.827" r="8.533" fill="#fcad3a" data-original="#fcad3a" class=""/><path xmlns="http://www.w3.org/2000/svg" d="M107.522,146.773c-6.588,0-11.947-5.361-11.947-11.947s5.359-11.947,11.947-11.947c6.588,0,11.947,5.361,11.947,11.947  S114.109,146.773,107.522,146.773z M107.522,129.707c-2.823,0-5.12,2.297-5.12,5.12c0,2.823,2.297,5.12,5.12,5.12  s5.12-2.297,5.12-5.12C112.642,132.004,110.345,129.707,107.522,129.707z" fill="#000000" data-original="#000000"/><circle xmlns="http://www.w3.org/2000/svg" style="" cx="141.655" cy="134.827" r="8.533" fill="#ff135a" data-original="#ee5281" class=""/><path xmlns="http://www.w3.org/2000/svg" d="M141.655,146.773c-6.588,0-11.947-5.361-11.947-11.947s5.359-11.947,11.947-11.947c6.588,0,11.947,5.361,11.947,11.947  S148.243,146.773,141.655,146.773z M141.655,129.707c-2.823,0-5.12,2.297-5.12,5.12c0,2.823,2.297,5.12,5.12,5.12  c2.823,0,5.12-2.297,5.12-5.12C146.775,132.004,144.478,129.707,141.655,129.707z" fill="#000000" data-original="#000000"/><circle xmlns="http://www.w3.org/2000/svg" style="" cx="124.588" cy="155.307" r="8.533" fill="#fcad3a" data-original="#fcad3a" class=""/><path xmlns="http://www.w3.org/2000/svg" d="M124.588,167.253c-6.588,0-11.947-5.361-11.947-11.947s5.359-11.947,11.947-11.947c6.588,0,11.947,5.361,11.947,11.947  S131.176,167.253,124.588,167.253z M124.588,150.187c-2.823,0-5.12,2.297-5.12,5.12s2.297,5.12,5.12,5.12s5.12-2.297,5.12-5.12  S127.411,150.187,124.588,150.187z" fill="#000000" data-original="#000000"/><rect xmlns="http://www.w3.org/2000/svg" x="47.788" y="13.653" style="" width="102.4" height="75.093" fill="#777777" data-original="#777777"/><path xmlns="http://www.w3.org/2000/svg" d="M153.602,92.16H44.375V10.24h109.227V92.16z M51.202,85.333h95.573V17.067H51.202V85.333z" fill="#000000" data-original="#000000"/><g xmlns="http://www.w3.org/2000/svg"></g><g xmlns="http://www.w3.org/2000/svg"></g><g xmlns="http://www.w3.org/2000/svg"></g><g xmlns="http://www.w3.org/2000/svg"></g><g xmlns="http://www.w3.org/2000/svg"></g><g xmlns="http://www.w3.org/2000/svg"></g><g xmlns="http://www.w3.org/2000/svg"></g><g xmlns="http://www.w3.org/2000/svg"></g><g xmlns="http://www.w3.org/2000/svg"></g><g xmlns="http://www.w3.org/2000/svg"></g><g xmlns="http://www.w3.org/2000/svg"></g><g xmlns="http://www.w3.org/2000/svg"></g><g xmlns="http://www.w3.org/2000/svg"></g><g xmlns="http://www.w3.org/2000/svg"></g><g xmlns="http://www.w3.org/2000/svg"></g></g></svg>